<svg xmlns="http://www.w3.org/2000/svg" version="1.1" xmlns:xlink="http://www.w3.org/1999/xlink" xmlns:svgjs="http://svgjs.dev/svgjs" width="2000" height="404" viewBox="0 0 2000 404"><g transform="matrix(1,0,0,1,-1.2121212121212466,-1.6037060357090809)"><svg viewBox="0 0 396 80" data-background-color="#ece6e3" preserveAspectRatio="xMidYMid meet" height="404" width="2000" xmlns="http://www.w3.org/2000/svg" xmlns:xlink="http://www.w3.org/1999/xlink"><g id="tight-bounds" transform="matrix(1,0,0,1,0.2400000000000091,0.3175655516255631)"><svg viewBox="0 0 395.52 79.36486889674887" height="79.36486889674887" width="395.52"><g><svg viewBox="0 0 649.2771573081361 130.28366825296828" height="79.36486889674887" width="395.52"><g transform="matrix(1,0,0,1,253.75715730813607,28.883438197237716)"><svg viewBox="0 0 395.52 72.51679185849285" height="72.51679185849285" width="395.52"><g id="textblocktransform"><svg viewBox="0 0 395.52 72.51679185849285" height="72.51679185849285" width="395.52" id="textblock"><g><svg viewBox="0 0 395.52 72.51679185849285" height="72.51679185849285" width="395.52"><g transform="matrix(1,0,0,1,0,0)"><svg width="395.52" viewBox="3.3 -38.18 211.566301367223 38.79" height="72.51679185849285" data-palette-color="url(#b65647ce-d1d9-4cdd-b634-f8070213face)"></svg></g></svg></g></svg></g></svg></g><g><svg viewBox="0 0 236.6376831533505 130.28366825296828" height="130.28366825296828" width="236.6376831533505"><g><svg xmlns="http://www.w3.org/2000/svg" xmlns:xlink="http://www.w3.org/1999/xlink" version="1.1" x="0" y="0" viewBox="1.39 20.99 87.22 48.02000000000001" enable-background="new 0 0 90 90" xml:space="preserve" height="130.28366825296828" width="236.6376831533505" class="icon-icon-0" data-fill-palette-color="accent" id="icon-0"></svg></g></svg></g></svg></g><defs></defs><mask id="5bc06422-dd30-436b-96ec-6325f2c1c385"><g id="SvgjsG2127"><svg viewBox="0 0 395.52 79.36486889674887" height="79.36486889674887" width="395.52"><g><svg viewBox="0 0 649.2771573081361 130.28366825296828" height="79.36486889674887" width="395.52"><g transform="matrix(1,0,0,1,253.75715730813607,28.883438197237716)"><svg viewBox="0 0 395.52 72.51679185849285" height="72.51679185849285" width="395.52"><g id="SvgjsG2126"><svg viewBox="0 0 395.52 72.51679185849285" height="72.51679185849285" width="395.52" id="SvgjsSvg2125"><g><svg viewBox="0 0 395.52 72.51679185849285" height="72.51679185849285" width="395.52"><g transform="matrix(1,0,0,1,0,0)"><svg width="395.52" viewBox="3.3 -38.18 211.566301367223 38.79" height="72.51679185849285" data-palette-color="url(#b65647ce-d1d9-4cdd-b634-f8070213face)"><path d="M11.01-22.17L11.01-20.36 11.11-20.36Q12.94-25.44 17.7-25.44L17.7-25.44Q18.31-25.44 18.7-25.38 19.09-25.32 19.24-25.27L19.24-25.27Q19.6-25.15 19.6-24.71L19.6-24.71 19.6-18.82Q19.6-18.07 18.73-18.41L18.73-18.41Q18.43-18.53 17.88-18.66 17.33-18.8 16.36-18.8L16.36-18.8Q13.84-18.8 12.43-16.96 11.01-15.11 11.01-11.94L11.01-11.94 11.01-1.29Q11.01-0.56 10.71-0.28 10.4 0 9.67 0L9.67 0 4.64 0Q3.91 0 3.6-0.28 3.3-0.56 3.3-1.29L3.3-1.29 3.3-21.75Q3.3-22.34 3.54-22.66L3.54-22.66Q4.05-23.34 4.77-24.05 5.49-24.76 6.54-25.56L6.54-25.56Q6.74-25.71 6.93-25.76 7.13-25.81 7.28-25.81L7.28-25.81Q7.62-25.81 7.96-25.56L7.96-25.56Q9.99-23.97 10.79-22.85L10.79-22.85Q11.01-22.56 11.01-22.17L11.01-22.17ZM35.5 0.61L35.5 0.61Q31.37 0.61 28.32-0.72 25.27-2.05 23.58-4.86 21.9-7.67 21.9-12.11L21.9-12.11Q21.9-18.77 25.31-22.19 28.73-25.61 34.4-25.61L34.4-25.61Q38.08-25.61 40.63-24.29 43.19-22.97 44.52-20.65 45.85-18.33 45.85-15.36L45.85-15.36Q45.85-12.45 44.36-11.3 42.87-10.16 40.01-10.16L40.01-10.16 29.54-10.16Q29.73-7.64 31.38-6.32 33.03-5 35.86-5L35.86-5Q38.11-5 39.46-5.68 40.82-6.35 41.35-6.74L41.35-6.74Q41.82-7.08 42.4-7.06L42.4-7.06Q42.87-7.06 43.74-6.87 44.6-6.69 45.46-6.2L45.46-6.2Q46.07-5.88 46.07-5.32L46.07-5.32Q46.07-5 45.94-4.42L45.94-4.42Q45.87-4.08 45.7-3.43 45.53-2.78 45.26-2.22L45.26-2.22Q45.11-1.95 44.8-1.71L44.8-1.71Q44.31-1.37 43.22-0.81 42.14-0.24 40.26 0.18 38.38 0.61 35.5 0.61ZM29.49-15.16L29.49-15.16 37.45-15.16Q38.69-15.16 38.69-16.31L38.69-16.31Q38.69-18.04 37.61-19.23 36.52-20.41 34.35-20.41L34.35-20.41Q31.98-20.41 30.87-18.9 29.76-17.38 29.49-15.16ZM73.58-22.44L73.58-22.44Q74.48-23.54 76.37-24.57 78.27-25.61 81.71-25.61L81.71-25.61Q86.59-25.61 88.76-23.1 90.94-20.58 90.94-15.55L90.94-15.55 90.94-1.29Q90.94-0.56 90.63-0.28 90.33 0 89.59 0L89.59 0 84.57 0Q83.83 0 83.53-0.28 83.22-0.56 83.22-1.29L83.22-1.29 83.22-14.28Q83.22-17.02 82.22-18.2 81.22-19.38 79.22-19.38L79.22-19.38Q77.44-19.38 76.4-18.59 75.36-17.8 74.92-16.46L74.92-16.46 74.92-1.29Q74.92-0.56 74.62-0.28 74.31 0 73.58 0L73.58 0 68.55 0Q67.82 0 67.51-0.28 67.21-0.56 67.21-1.29L67.21-1.29 67.21-14.28Q67.21-16.94 66.11-18.16 65.01-19.38 63.23-19.38L63.23-19.38Q61.54-19.38 60.52-18.55 59.49-17.72 58.93-16.46L58.93-16.46 58.93-1.29Q58.93-0.56 58.63-0.28 58.32 0 57.59 0L57.59 0 52.56 0Q51.83 0 51.52-0.28 51.22-0.56 51.22-1.29L51.22-1.29 51.22-21.75Q51.22-22.34 51.46-22.66L51.46-22.66Q51.97-23.34 52.69-24.05 53.41-24.76 54.46-25.56L54.46-25.56Q54.78-25.81 55.07-25.81L55.07-25.81Q55.34-25.81 55.68-25.56L55.68-25.56Q56.71-24.76 57.44-24.02 58.17-23.29 58.74-22.51L58.74-22.51 58.86-22.51Q59.69-23.56 61.45-24.58 63.2-25.61 66.47-25.61L66.47-25.61Q69.6-25.61 71.11-24.67 72.63-23.73 73.58-22.44ZM109.51 0.61L109.51 0.61Q103.36 0.61 99.77-2.66 96.18-5.93 96.18-12.4L96.18-12.4Q96.18-19.04 99.91-22.33 103.63-25.61 109.86-25.61L109.86-25.61Q115.86-25.61 119.47-22.38 123.09-19.14 123.09-12.84L123.09-12.84Q123.09-6.27 119.47-2.83 115.86 0.61 109.51 0.61ZM109.76-5.3L109.76-5.3Q112.44-5.3 113.81-6.97 115.18-8.64 115.18-12.7L115.18-12.7Q115.18-16.55 113.8-18.13 112.42-19.7 109.71-19.7L109.71-19.7Q107.1-19.7 105.6-18.01 104.09-16.31 104.09-12.5L104.09-12.5Q104.09-8.52 105.52-6.91 106.95-5.3 109.76-5.3ZM133.61-2.27L133.61-2.27Q132.27-4.39 130.96-7.17 129.65-9.94 128.59-12.78 127.53-15.63 126.89-17.98 126.26-20.34 126.26-21.61L126.26-21.61Q126.26-22.09 126.53-22.41L126.53-22.41Q127.65-23.8 129.73-25.32L129.73-25.32Q130.09-25.56 130.39-25.56L130.39-25.56Q130.7-25.56 131.04-25.32L131.04-25.32Q132.17-24.51 132.94-23.8 133.71-23.1 134.24-22.41L134.24-22.41Q134.51-22.09 134.51-21.51L134.51-21.51 134.51-21.63Q134.51-20.04 135.09-17.47 135.66-14.89 136.66-12.04 137.66-9.18 138.98-6.79L138.98-6.79 139.1-6.79Q140.2-8.59 141.05-10.69 141.91-12.79 142.49-14.89 143.08-16.99 143.39-18.75 143.69-20.51 143.69-21.61L143.69-21.61 143.69-21.51Q143.69-22.09 143.94-22.41L143.94-22.41Q144.5-23.1 145.25-23.8 146.01-24.51 147.08-25.32L147.08-25.32Q147.43-25.56 147.72-25.56L147.72-25.56Q148.06-25.56 148.35-25.32L148.35-25.32Q149.45-24.51 150.21-23.8 150.97-23.1 151.5-22.41L151.5-22.41Q151.75-22.09 151.75-21.56L151.75-21.56Q151.72-20.24 151.06-17.86 150.41-15.48 149.29-12.63 148.18-9.79 146.82-7.04 145.45-4.3 144.03-2.27L144.03-2.27Q143.18-1.03 142.49-0.51 141.81 0 140.13 0L140.13 0 137.54 0Q135.78 0 135.11-0.49 134.44-0.98 133.61-2.27ZM126.26-21.51L126.26-21.63 126.26-21.61Q126.26-21.56 126.26-21.51L126.26-21.51ZM151.75-21.61L151.75-21.61 151.75-21.51 151.75-21.56Q151.75-21.58 151.75-21.61ZM168.52 0.61L168.52 0.61Q164.39 0.61 161.34-0.72 158.29-2.05 156.6-4.86 154.92-7.67 154.92-12.11L154.92-12.11Q154.92-18.77 158.34-22.19 161.76-25.61 167.42-25.61L167.42-25.61Q171.11-25.61 173.66-24.29 176.21-22.97 177.54-20.65 178.87-18.33 178.87-15.36L178.87-15.36Q178.87-12.45 177.38-11.3 175.89-10.16 173.03-10.16L173.03-10.16 162.56-10.16Q162.76-7.64 164.4-6.32 166.05-5 168.88-5L168.88-5Q171.13-5 172.49-5.68 173.84-6.35 174.38-6.74L174.38-6.74Q174.84-7.08 175.43-7.06L175.43-7.06Q175.89-7.06 176.76-6.87 177.62-6.69 178.48-6.2L178.48-6.2Q179.09-5.88 179.09-5.32L179.09-5.32Q179.09-5 178.97-4.42L178.97-4.42Q178.89-4.08 178.72-3.43 178.55-2.78 178.28-2.22L178.28-2.22Q178.14-1.95 177.82-1.71L177.82-1.71Q177.33-1.37 176.24-0.81 175.16-0.24 173.28 0.18 171.4 0.61 168.52 0.61ZM162.51-15.16L162.51-15.16 170.47-15.16Q171.72-15.16 171.72-16.31L171.72-16.31Q171.72-18.04 170.63-19.23 169.54-20.41 167.37-20.41L167.37-20.41Q165-20.41 163.89-18.9 162.78-17.38 162.51-15.16ZM183.11-33.2L183.11-33.2Q183.11-33.52 183.31-33.76 183.51-34.01 183.82-34.4L183.82-34.4Q184.51-35.18 185.41-36.05 186.31-36.91 187.24-37.72L187.24-37.72Q187.83-38.18 188.12-38.18L188.12-38.18Q188.41-38.18 189.02-37.72L189.02-37.72Q191-36.01 192.39-34.4L192.39-34.4Q192.71-34.03 192.92-33.78 193.12-33.52 193.12-33.2L193.12-33.2Q193.12-32.89 192.92-32.64 192.71-32.4 192.37-31.98L192.37-31.98Q191.71-31.23 190.83-30.36 189.95-29.49 189.02-28.71L189.02-28.71Q188.68-28.42 188.49-28.33 188.29-28.25 188.12-28.25L188.12-28.25Q187.95-28.25 187.77-28.33 187.58-28.42 187.19-28.71L187.19-28.71Q186.22-29.49 185.36-30.36 184.51-31.23 183.82-32.03L183.82-32.03Q183.51-32.42 183.31-32.65 183.11-32.89 183.11-33.2ZM191.95-23.71L191.95-1.29Q191.95-0.56 191.65-0.28 191.34 0 190.61 0L190.61 0 185.58 0Q184.85 0 184.54-0.28 184.24-0.56 184.24-1.29L184.24-1.29 184.24-23.71Q184.24-24.44 184.54-24.72 184.85-25 185.58-25L185.58-25 190.61-25Q191.34-25 191.65-24.72 191.95-24.44 191.95-23.71L191.95-23.71ZM208.48 0.61L208.48 0.61Q200.32 0.61 200.32-7.86L200.32-7.86 200.32-19.31 197.57-19.31Q196.83-19.31 196.55-19.62 196.27-19.92 196.27-20.65L196.27-20.65 196.27-23.66Q196.27-24.39 196.55-24.69 196.83-25 197.57-25L197.57-25 200.32-25 200.32-28.93Q200.32-29.52 200.57-29.83L200.57-29.83Q201.59-31.18 203.57-32.74L203.57-32.74Q203.91-32.98 204.18-32.98L204.18-32.98Q204.47-32.98 204.77-32.74L204.77-32.74Q205.82-31.93 206.54-31.23 207.26-30.52 207.77-29.83L207.77-29.83Q208.01-29.52 208.01-28.93L208.01-28.93 208.01-25 212.34-25Q213.07-25 213.35-24.69 213.63-24.39 213.63-23.66L213.63-23.66 213.63-20.65Q213.63-19.92 213.35-19.62 213.07-19.31 212.34-19.31L212.34-19.31 208.01-19.31 208.01-9.2Q208.01-5.3 210.85-5.3L210.85-5.3Q211.29-5.3 211.65-5.38 212.02-5.47 212.29-5.57L212.29-5.57Q212.8-5.76 213.01-5.71 213.21-5.66 213.39-5.18L213.39-5.18 214.8-1.39Q215.02-0.78 214.51-0.51L214.51-0.51Q214.14-0.34 212.74 0.13 211.34 0.61 208.48 0.61Z" opacity="1" transform="matrix(1,0,0,1,0,0)" fill="white" class="wordmark-text-0" id="SvgjsPath2124"></path></svg></g></svg></g></svg></g></svg></g><g><svg viewBox="0 0 236.6376831533505 130.28366825296828" height="130.28366825296828" width="236.6376831533505"><g><svg xmlns="http://www.w3.org/2000/svg" xmlns:xlink="http://www.w3.org/1999/xlink" version="1.1" x="0" y="0" viewBox="1.39 20.99 87.22 48.02000000000001" enable-background="new 0 0 90 90" xml:space="preserve" height="130.28366825296828" width="236.6376831533505" class="icon-icon-0" data-fill-palette-color="accent" id="SvgjsSvg2123"><rect x="1.39" y="45.49" width="23.52" height="23.52" fill="black"></rect><polygon points="43.294,33.24 25.263,44.51 2.604,44.51 20.638,33.24 " fill="black"></polygon><polygon points="64.108,44.727 25.89,68.617 25.89,45.273 64.108,21.382 " fill="black"></polygon><polygon points="64.728,45.49 87.394,45.49 69.36,56.76 46.704,56.76 " fill="black"></polygon><rect x="65.089" y="20.99" width="23.521" height="23.52" fill="black"></rect></svg></g></svg></g></svg></g><defs><mask></mask></defs></svg><rect width="395.52" height="79.36486889674887" fill="black" stroke="none" visibility="hidden"></rect></g></mask><linearGradient x1="0.054" x2="0.941" y1="0.5" y2="0.5" id="b65647ce-d1d9-4cdd-b634-f8070213face"><stop stop-color="#0f3054" offset="0"></stop><stop stop-color="#3b8dcb" offset="0.498"></stop><stop stop-color="#0f3054" offset="1"></stop></linearGradient><rect width="395.52" height="79.36486889674887" fill="url(#b65647ce-d1d9-4cdd-b634-f8070213face)" mask="url(#5bc06422-dd30-436b-96ec-6325f2c1c385)" data-fill-palette-color="primary"></rect><mask id="a5e90842-a117-4f74-93f3-f9a063ddf40f"><g id="SvgjsG2136"><svg viewBox="0 0 395.52 79.36486889674887" height="79.36486889674887" width="395.52"><g><svg viewBox="0 0 649.2771573081361 130.28366825296828" height="79.36486889674887" width="395.52"><g transform="matrix(1,0,0,1,253.75715730813607,28.883438197237716)"><svg viewBox="0 0 395.52 72.51679185849285" height="72.51679185849285" width="395.52"><g id="SvgjsG2135"><svg viewBox="0 0 395.52 72.51679185849285" height="72.51679185849285" width="395.52" id="SvgjsSvg2134"><g><svg viewBox="0 0 395.52 72.51679185849285" height="72.51679185849285" width="395.52"><g transform="matrix(1,0,0,1,0,0)"><svg width="395.52" viewBox="3.3 -38.18 211.566301367223 38.79" height="72.51679185849285" data-palette-color="url(#b65647ce-d1d9-4cdd-b634-f8070213face)"></svg></g></svg></g></svg></g></svg></g><g><svg viewBox="0 0 236.6376831533505 130.28366825296828" height="130.28366825296828" width="236.6376831533505"><g><svg xmlns="http://www.w3.org/2000/svg" xmlns:xlink="http://www.w3.org/1999/xlink" version="1.1" x="0" y="0" viewBox="1.39 20.99 87.22 48.02000000000001" enable-background="new 0 0 90 90" xml:space="preserve" height="130.28366825296828" width="236.6376831533505" class="icon-icon-0" data-fill-palette-color="accent" id="SvgjsSvg2133"><rect x="1.39" y="45.49" width="23.52" height="23.52" fill="white"></rect><polygon points="43.294,33.24 25.263,44.51 2.604,44.51 20.638,33.24 " fill="white"></polygon><polygon points="64.108,44.727 25.89,68.617 25.89,45.273 64.108,21.382 " fill="white"></polygon><polygon points="64.728,45.49 87.394,45.49 69.36,56.76 46.704,56.76 " fill="white"></polygon><rect x="65.089" y="20.99" width="23.521" height="23.52" fill="white"></rect></svg></g></svg></g></svg></g><defs><mask></mask></defs><mask><g id="SvgjsG2132"><svg viewBox="0 0 395.52 79.36486889674887" height="79.36486889674887" width="395.52"><g><svg viewBox="0 0 649.2771573081361 130.28366825296828" height="79.36486889674887" width="395.52"><g transform="matrix(1,0,0,1,253.75715730813607,28.883438197237716)"><svg viewBox="0 0 395.52 72.51679185849285" height="72.51679185849285" width="395.52"><g id="SvgjsG2131"><svg viewBox="0 0 395.52 72.51679185849285" height="72.51679185849285" width="395.52" id="SvgjsSvg2130"><g><svg viewBox="0 0 395.52 72.51679185849285" height="72.51679185849285" width="395.52"><g transform="matrix(1,0,0,1,0,0)"><svg width="395.52" viewBox="3.3 -38.18 211.566301367223 38.79" height="72.51679185849285" data-palette-color="url(#b65647ce-d1d9-4cdd-b634-f8070213face)"><path d="M11.01-22.17L11.01-20.36 11.11-20.36Q12.94-25.44 17.7-25.44L17.7-25.44Q18.31-25.44 18.7-25.38 19.09-25.32 19.24-25.27L19.24-25.27Q19.6-25.15 19.6-24.71L19.6-24.71 19.6-18.82Q19.6-18.07 18.73-18.41L18.73-18.41Q18.43-18.53 17.88-18.66 17.33-18.8 16.36-18.8L16.36-18.8Q13.84-18.8 12.43-16.96 11.01-15.11 11.01-11.94L11.01-11.94 11.01-1.29Q11.01-0.56 10.71-0.28 10.4 0 9.67 0L9.67 0 4.64 0Q3.91 0 3.6-0.28 3.3-0.56 3.3-1.29L3.3-1.29 3.3-21.75Q3.3-22.34 3.54-22.66L3.54-22.66Q4.05-23.34 4.77-24.05 5.49-24.76 6.54-25.56L6.54-25.56Q6.74-25.71 6.93-25.76 7.13-25.81 7.28-25.81L7.28-25.81Q7.62-25.81 7.96-25.56L7.96-25.56Q9.99-23.97 10.79-22.85L10.79-22.85Q11.01-22.56 11.01-22.17L11.01-22.17ZM35.5 0.61L35.5 0.61Q31.37 0.61 28.32-0.72 25.27-2.05 23.58-4.86 21.9-7.67 21.9-12.11L21.9-12.11Q21.9-18.77 25.31-22.19 28.73-25.61 34.4-25.61L34.4-25.61Q38.08-25.61 40.63-24.29 43.19-22.97 44.52-20.65 45.85-18.33 45.85-15.36L45.85-15.36Q45.85-12.45 44.36-11.3 42.87-10.16 40.01-10.16L40.01-10.16 29.54-10.16Q29.73-7.64 31.38-6.32 33.03-5 35.86-5L35.86-5Q38.11-5 39.46-5.68 40.82-6.35 41.35-6.74L41.35-6.74Q41.82-7.08 42.4-7.06L42.4-7.06Q42.87-7.06 43.74-6.87 44.6-6.69 45.46-6.2L45.46-6.2Q46.07-5.88 46.07-5.32L46.07-5.32Q46.07-5 45.94-4.42L45.94-4.42Q45.87-4.08 45.7-3.43 45.53-2.78 45.26-2.22L45.26-2.22Q45.11-1.95 44.8-1.71L44.8-1.71Q44.31-1.37 43.22-0.81 42.14-0.24 40.26 0.18 38.38 0.61 35.5 0.61ZM29.49-15.16L29.49-15.16 37.45-15.16Q38.69-15.16 38.69-16.31L38.69-16.31Q38.69-18.04 37.61-19.23 36.52-20.41 34.35-20.41L34.35-20.41Q31.98-20.41 30.87-18.9 29.76-17.38 29.49-15.16ZM73.58-22.44L73.58-22.44Q74.48-23.54 76.37-24.57 78.27-25.61 81.71-25.61L81.71-25.61Q86.59-25.61 88.76-23.1 90.94-20.58 90.94-15.55L90.94-15.55 90.94-1.29Q90.94-0.56 90.63-0.28 90.33 0 89.59 0L89.59 0 84.57 0Q83.83 0 83.53-0.28 83.22-0.56 83.22-1.29L83.22-1.29 83.22-14.28Q83.22-17.02 82.22-18.2 81.22-19.38 79.22-19.38L79.22-19.38Q77.44-19.38 76.4-18.59 75.36-17.8 74.92-16.46L74.92-16.46 74.92-1.29Q74.92-0.56 74.62-0.28 74.31 0 73.58 0L73.58 0 68.55 0Q67.82 0 67.51-0.28 67.21-0.56 67.21-1.29L67.21-1.29 67.21-14.28Q67.21-16.94 66.11-18.16 65.01-19.38 63.23-19.38L63.23-19.38Q61.54-19.38 60.52-18.55 59.49-17.72 58.93-16.46L58.93-16.46 58.93-1.29Q58.93-0.56 58.63-0.28 58.32 0 57.59 0L57.59 0 52.56 0Q51.83 0 51.52-0.28 51.22-0.56 51.22-1.29L51.22-1.29 51.22-21.75Q51.22-22.34 51.46-22.66L51.46-22.66Q51.97-23.34 52.69-24.05 53.41-24.76 54.46-25.56L54.46-25.56Q54.78-25.81 55.07-25.81L55.07-25.81Q55.34-25.81 55.68-25.56L55.68-25.56Q56.71-24.76 57.44-24.02 58.17-23.29 58.74-22.51L58.74-22.51 58.86-22.51Q59.69-23.56 61.45-24.58 63.2-25.61 66.47-25.61L66.47-25.61Q69.6-25.61 71.11-24.67 72.63-23.73 73.58-22.44ZM109.51 0.61L109.51 0.61Q103.36 0.61 99.77-2.66 96.18-5.93 96.18-12.4L96.18-12.4Q96.18-19.04 99.91-22.33 103.63-25.61 109.86-25.61L109.86-25.61Q115.86-25.61 119.47-22.38 123.09-19.14 123.09-12.84L123.09-12.84Q123.09-6.27 119.47-2.83 115.86 0.61 109.51 0.61ZM109.76-5.3L109.76-5.3Q112.44-5.3 113.81-6.97 115.18-8.64 115.18-12.7L115.18-12.7Q115.18-16.55 113.8-18.13 112.42-19.7 109.71-19.7L109.71-19.7Q107.1-19.7 105.6-18.01 104.09-16.31 104.09-12.5L104.09-12.5Q104.09-8.52 105.52-6.91 106.95-5.3 109.76-5.3ZM133.61-2.27L133.61-2.27Q132.27-4.39 130.96-7.17 129.65-9.94 128.59-12.78 127.53-15.63 126.89-17.98 126.26-20.34 126.26-21.61L126.26-21.61Q126.26-22.09 126.53-22.41L126.53-22.41Q127.65-23.8 129.73-25.32L129.73-25.32Q130.09-25.56 130.39-25.56L130.39-25.56Q130.7-25.56 131.04-25.32L131.04-25.32Q132.17-24.51 132.94-23.8 133.71-23.1 134.24-22.41L134.24-22.41Q134.51-22.09 134.51-21.51L134.51-21.51 134.51-21.63Q134.51-20.04 135.09-17.47 135.66-14.89 136.66-12.04 137.66-9.18 138.98-6.79L138.98-6.79 139.1-6.79Q140.2-8.59 141.05-10.69 141.91-12.79 142.49-14.89 143.08-16.99 143.39-18.75 143.69-20.51 143.69-21.61L143.69-21.61 143.69-21.51Q143.69-22.09 143.94-22.41L143.94-22.41Q144.5-23.1 145.25-23.8 146.01-24.51 147.08-25.32L147.08-25.32Q147.43-25.56 147.72-25.56L147.72-25.56Q148.06-25.56 148.35-25.32L148.35-25.32Q149.45-24.51 150.21-23.8 150.97-23.1 151.5-22.41L151.5-22.41Q151.75-22.09 151.75-21.56L151.75-21.56Q151.72-20.24 151.06-17.86 150.41-15.48 149.29-12.63 148.18-9.79 146.82-7.04 145.45-4.3 144.03-2.27L144.03-2.27Q143.18-1.03 142.49-0.51 141.81 0 140.13 0L140.13 0 137.54 0Q135.78 0 135.11-0.49 134.44-0.98 133.61-2.27ZM126.26-21.51L126.26-21.63 126.26-21.61Q126.26-21.56 126.26-21.51L126.26-21.51ZM151.75-21.61L151.75-21.61 151.75-21.51 151.75-21.56Q151.75-21.58 151.75-21.61ZM168.52 0.61L168.52 0.61Q164.39 0.61 161.34-0.72 158.29-2.05 156.6-4.86 154.92-7.67 154.92-12.11L154.92-12.11Q154.92-18.77 158.34-22.19 161.76-25.61 167.42-25.61L167.42-25.61Q171.11-25.61 173.66-24.29 176.21-22.97 177.54-20.65 178.87-18.33 178.87-15.36L178.87-15.36Q178.87-12.45 177.38-11.3 175.89-10.16 173.03-10.16L173.03-10.16 162.56-10.16Q162.76-7.64 164.4-6.32 166.05-5 168.88-5L168.88-5Q171.13-5 172.49-5.68 173.84-6.35 174.38-6.74L174.38-6.74Q174.84-7.08 175.43-7.06L175.43-7.06Q175.89-7.06 176.76-6.87 177.62-6.69 178.48-6.2L178.48-6.2Q179.09-5.88 179.09-5.32L179.09-5.32Q179.09-5 178.97-4.42L178.97-4.42Q178.89-4.08 178.72-3.43 178.55-2.78 178.28-2.22L178.28-2.22Q178.14-1.95 177.82-1.71L177.82-1.71Q177.33-1.37 176.24-0.81 175.16-0.24 173.28 0.18 171.4 0.61 168.52 0.61ZM162.51-15.16L162.51-15.16 170.47-15.16Q171.72-15.16 171.72-16.31L171.72-16.31Q171.72-18.04 170.63-19.23 169.54-20.41 167.37-20.41L167.37-20.41Q165-20.41 163.89-18.9 162.78-17.38 162.51-15.16ZM183.11-33.2L183.11-33.2Q183.11-33.52 183.31-33.76 183.51-34.01 183.82-34.4L183.82-34.4Q184.51-35.18 185.41-36.05 186.31-36.91 187.24-37.72L187.24-37.72Q187.83-38.18 188.12-38.18L188.12-38.18Q188.41-38.18 189.02-37.72L189.02-37.72Q191-36.01 192.39-34.4L192.39-34.4Q192.71-34.03 192.92-33.78 193.12-33.52 193.12-33.2L193.12-33.2Q193.12-32.89 192.92-32.64 192.71-32.4 192.37-31.98L192.37-31.98Q191.71-31.23 190.83-30.36 189.95-29.49 189.02-28.71L189.02-28.71Q188.68-28.42 188.49-28.33 188.29-28.25 188.12-28.25L188.12-28.25Q187.95-28.25 187.77-28.33 187.58-28.42 187.19-28.71L187.19-28.71Q186.22-29.49 185.36-30.36 184.51-31.23 183.82-32.03L183.82-32.03Q183.51-32.42 183.31-32.65 183.11-32.89 183.11-33.2ZM191.95-23.71L191.95-1.29Q191.95-0.56 191.65-0.28 191.34 0 190.61 0L190.61 0 185.58 0Q184.85 0 184.54-0.28 184.24-0.56 184.24-1.29L184.24-1.29 184.24-23.71Q184.24-24.44 184.54-24.72 184.85-25 185.58-25L185.58-25 190.61-25Q191.34-25 191.65-24.72 191.95-24.44 191.95-23.71L191.95-23.71ZM208.48 0.61L208.48 0.61Q200.32 0.61 200.32-7.86L200.32-7.86 200.32-19.31 197.57-19.31Q196.83-19.31 196.55-19.62 196.27-19.92 196.27-20.65L196.27-20.65 196.27-23.66Q196.27-24.39 196.55-24.69 196.83-25 197.57-25L197.57-25 200.32-25 200.32-28.93Q200.32-29.52 200.57-29.83L200.57-29.83Q201.59-31.18 203.57-32.74L203.57-32.74Q203.91-32.98 204.18-32.98L204.18-32.98Q204.47-32.98 204.77-32.74L204.77-32.74Q205.82-31.93 206.54-31.23 207.26-30.52 207.77-29.83L207.77-29.83Q208.01-29.52 208.01-28.93L208.01-28.93 208.01-25 212.34-25Q213.07-25 213.35-24.69 213.63-24.39 213.63-23.66L213.63-23.66 213.63-20.65Q213.63-19.92 213.35-19.62 213.07-19.31 212.34-19.31L212.34-19.31 208.01-19.31 208.01-9.2Q208.01-5.3 210.85-5.3L210.85-5.3Q211.29-5.3 211.65-5.38 212.02-5.47 212.29-5.57L212.29-5.57Q212.8-5.76 213.01-5.71 213.21-5.66 213.39-5.18L213.39-5.18 214.8-1.39Q215.02-0.78 214.51-0.51L214.51-0.51Q214.14-0.34 212.74 0.13 211.34 0.61 208.48 0.61Z" opacity="1" transform="matrix(1,0,0,1,0,0)" fill="black" class="wordmark-text-0" id="SvgjsPath2129"></path></svg></g></svg></g></svg></g></svg></g><g><svg viewBox="0 0 236.6376831533505 130.28366825296828" height="130.28366825296828" width="236.6376831533505"><g><svg xmlns="http://www.w3.org/2000/svg" xmlns:xlink="http://www.w3.org/1999/xlink" version="1.1" x="0" y="0" viewBox="1.39 20.99 87.22 48.02000000000001" enable-background="new 0 0 90 90" xml:space="preserve" height="130.28366825296828" width="236.6376831533505" class="icon-icon-0" data-fill-palette-color="accent" id="SvgjsSvg2128"><rect x="1.39" y="45.49" width="23.52" height="23.52" fill="black"></rect><polygon points="43.294,33.24 25.263,44.51 2.604,44.51 20.638,33.24 " fill="black"></polygon><polygon points="64.108,44.727 25.89,68.617 25.89,45.273 64.108,21.382 " fill="black"></polygon><polygon points="64.728,45.49 87.394,45.49 69.36,56.76 46.704,56.76 " fill="black"></polygon><rect x="65.089" y="20.99" width="23.521" height="23.52" fill="black"></rect></svg></g></svg></g></svg></g><defs><mask></mask></defs></svg><rect width="395.52" height="79.36486889674887" fill="black" stroke="none" visibility="hidden"></rect></g></mask></svg><rect width="395.52" height="79.36486889674887" fill="black" stroke="none" visibility="hidden"></rect></g></mask><linearGradient x1="0.054" x2="0.941" y1="0.5" y2="0.5" id="73540422-d143-40d5-bb67-8b7dc79481e0"><stop stop-color="#0f3054" offset="0"></stop><stop stop-color="#3b8dcb" offset="0.498"></stop><stop stop-color="#0f3054" offset="1"></stop></linearGradient><rect width="395.52" height="79.36486889674887" fill="url(#73540422-d143-40d5-bb67-8b7dc79481e0)" mask="url(#a5e90842-a117-4f74-93f3-f9a063ddf40f)" data-fill-palette-color="accent"></rect></svg><rect width="395.52" height="79.36486889674887" fill="none" stroke="none" visibility="hidden"></rect></g></svg></g></svg>