<svg id="Layer_1" xmlns="http://www.w3.org/2000/svg" viewBox="0 0 48 48"><path d="M44.71,27l-1.53,15.3c-.16,1.54-1.44,2.7-2.99,2.7h-8.74c.61-1.04,.71-2.28,.27-3.46l-.02-.05-2.73-6.2c.01-.09,.03-.19,.03-.29v-2c0-2.21-1.79-4-4-4h-1.51l-.2-2h21.42Z" id="id_101" style="fill: rgb(255, 255, 255);"></path><path d="M44.58,21h-2.1c-1.23-3.49-4.57-6-8.48-6s-7.25,2.51-8.48,6h-2.1c1.3-4.61,5.55-8,10.58-8s9.28,3.39,10.58,8Z" id="id_102" style="fill: rgb(255, 255, 255);"></path><path d="M45,25H23c-.552,0-1-.447-1-1s.448-1,1-1h22c.552,0,1,.447,1,1s-.448,1-1,1Z" id="id_103" style="fill: rgb(255, 255, 255);"></path><path d="M6,25c-.365,0-.702-.199-.877-.52l-.499-.911c-.276-.506-.688-.918-1.192-1.194l-.911-.497c-.321-.176-.521-.513-.521-.878s.2-.702,.521-.878l.912-.498c.504-.275,.916-.688,1.192-1.192h0l.499-.912c.352-.641,1.403-.641,1.755,0l.499,.911c.276,.506,.688,.918,1.192,1.194l.911,.497c.321,.176,.521,.513,.521,.878s-.2,.702-.521,.878l-.912,.498c-.504,.275-.916,.688-1.192,1.192l-.499,.912c-.176,.32-.512,.52-.877,.52Z" id="id_104" style="fill: rgb(255, 255, 255);"></path><path d="M40,12c-.365,0-.702-.199-.877-.52l-.499-.911c-.276-.506-.688-.918-1.192-1.194l-.911-.497c-.321-.176-.521-.513-.521-.878s.2-.702,.521-.878l.912-.498c.504-.275,.916-.688,1.192-1.192h0l.499-.912c.352-.641,1.403-.641,1.755,0l.499,.911c.276,.506,.688,.918,1.192,1.194l.911,.497c.321,.176,.521,.513,.521,.878s-.2,.702-.521,.878l-.912,.498c-.504,.275-.916,.688-1.192,1.192l-.499,.912c-.176,.32-.512,.52-.877,.52Z" id="id_105" style="fill: rgb(255, 255, 255);"></path><path d="M27,9h-1v-1c0-.553-.448-1-1-1s-1,.447-1,1v1h-1c-.552,0-1,.447-1,1s.448,1,1,1h1v1c0,.553,.448,1,1,1s1-.447,1-1v-1h1c.552,0,1-.447,1-1s-.448-1-1-1Z" id="id_106" style="fill: rgb(255, 255, 255);"></path><path d="M8,8h-1v-1c0-.553-.448-1-1-1s-1,.447-1,1v1h-1c-.552,0-1,.447-1,1s.448,1,1,1h1v1c0,.553,.448,1,1,1s1-.447,1-1v-1h1c.552,0,1-.447,1-1s-.448-1-1-1Z" id="id_107" style="fill: rgb(252, 252, 252);"></path><path d="M6,38c-.64,0-1.24-.21-1.73-.55l-2.14,4.85c-.23,.61-.15,1.3,.23,1.84,.37,.54,.99,.86,1.64,.86h2.01l1.36-7h-1.37Z" id="id_108" style="fill: rgb(255, 255, 255);"></path><polygon points="13.14 38 12.68 45 15 45 15 38 13.14 38" id="id_109" style="fill: rgb(255, 255, 255);"></polygon><polygon points="22.59 38 20.87 38 21.33 45 23.95 45 22.59 38" id="id_110" style="fill: rgb(255, 255, 255);"></polygon><path d="M29.85,42.24l-2.12-4.79c-.49,.34-1.09,.55-1.73,.55h-1.37l1.36,7h2.01c.65,0,1.27-.32,1.64-.86,.38-.54,.46-1.23,.21-1.9Z" id="id_111" style="fill: rgb(255, 255, 255);"></path><polygon points="18.87 38 17 38 17 45 19.33 45 18.87 38" id="id_112" style="fill: rgb(255, 255, 255);"></polygon><polygon points="9.41 38 8.05 45 10.67 45 11.13 38 9.41 38" id="id_113" style="fill: rgb(255, 255, 255);"></polygon><path d="M16,3h0c1.105,0,2,.895,2,2V26h-4V5c0-1.105,.895-2,2-2Z" id="id_114" style="fill: rgb(255, 255, 255);"></path><path d="M11,30c0-1.105,.895-2,2-2h6c1.105,0,2,.895,2,2H11Z" id="id_115" style="fill: rgb(255, 255, 255);"></path><path d="M26,36H6c-.552,0-1-.447-1-1v-1c0-1.103,.897-2,2-2H25c1.103,0,2,.897,2,2v1c0,.553-.448,1-1,1Z" id="id_116" style="fill: rgb(255, 255, 255);"></path></svg>